<svg xmlns="http://www.w3.org/2000/svg" viewBox="0 0 50 50">
  <defs>
    <linearGradient id="playGradient" x1="0%" y1="0%" x2="100%" y2="100%">
      <stop offset="0%" style="stop-color:#3B82F6"/>
      <stop offset="100%" style="stop-color:#9333EA"/>
    </linearGradient>
    <linearGradient id="circuitGradient" x1="0%" y1="0%" x2="100%" y2="0%">
      <stop offset="0%" style="stop-color:#9333EA"/>
      <stop offset="100%" style="stop-color:#6366F1"/>
    </linearGradient>
  </defs>
  <g transform="translate(5,5) scale(0.8)">
    <path
      d="M20 10 C15 10 12 15 12 25 C12 35 15 40 20 40 L35 32.5 L35 17.5 L20 10"
      fill="url(#playGradient)"
    />
    <g>
      <path
        d="M45 25 Q55 25 60 20 Q65 15 75 15 M75 15 Q85 15 90 25"
        stroke="url(#circuitGradient)"
        fill="none"
        stroke-width="2"
        stroke-linecap="round"
      />
      <path
        d="M45 25 Q55 25 60 30 Q65 35 75 35 M75 35 Q85 35 90 25"
        stroke="url(#circuitGradient)"
        fill="none"
        stroke-width="2"
        stroke-linecap="round"
      />
      <circle cx="75" cy="15" r="2" fill="#6366F1"/>
      <circle cx="75" cy="35" r="2" fill="#6366F1"/>
      <circle cx="90" cy="25" r="2" fill="#6366F1"/>
    </g>
  </g>
</svg>